<?xml version="1.0" encoding="utf-8"?>
<!-- Generator: Adobe Illustrator 19.0.1, SVG Export Plug-In . SVG Version: 6.00 Build 0)  -->
<svg version="1.1" id="Layer_1" xmlns="http://www.w3.org/2000/svg" xmlns:xlink="http://www.w3.org/1999/xlink" x="0px" y="0px"
	 viewBox="0 0 32 32" enable-background="new 0 0 32 32" xml:space="preserve">
<g>
	<path fill="#FBD37A" d="M25.122,9.122c0-5.38-4.658-9.672-10.16-9.064c-3.925,0.433-7.662,4.233-8.04,8.163
		c-0.279,2.899,0.804,5.549,2.682,7.395c1.253,1.231,1.883,2.963,1.883,4.72l0,1.276c0,2.207,1.806,4.013,4.013,4.013h1
		c2.207,0,4.013-1.806,4.013-4.013v-1.45c0-1.73,0.709-3.373,1.934-4.596C24.098,13.917,25.122,11.64,25.122,9.122z"/>
	<path fill="#4E5158" d="M19.247,26.892h-6.494c-0.305,0-0.555-0.25-0.555-0.555s0.25-0.555,0.555-0.555h6.494
		c0.305,0,0.555,0.25,0.555,0.555S19.552,26.892,19.247,26.892z"/>
	<path fill="#4E5158" d="M19.247,28.002h-6.494c-0.305,0-0.555-0.25-0.555-0.555c0-0.305,0.25-0.555,0.555-0.555h6.494
		c0.305,0,0.555,0.25,0.555,0.555C19.802,27.752,19.552,28.002,19.247,28.002z"/>
	<path fill="#4E5158" d="M19.054,29.112h-6.109c-0.305,0-0.555-0.25-0.555-0.555v0c0-0.305,0.25-0.555,0.555-0.555h6.109
		c0.305,0,0.555,0.25,0.555,0.555v0C19.609,28.862,19.36,29.112,19.054,29.112z"/>
	<path fill="#968E89" d="M18.494,29.112h-4.989c-0.305,0-0.555,0.25-0.555,0.555s0.25,0.555,0.555,0.555h1.002l-0.024,0.118
		c0,0.305,0.25,0.555,0.555,0.555h1.923c0.305,0,0.555-0.25,0.555-0.555l-0.024-0.118h1.002c0.305,0,0.555-0.25,0.555-0.555
		S18.8,29.112,18.494,29.112z"/>
	<path fill="#4E5158" d="M19.054,30.217h-6.109c-0.305,0-0.555-0.25-0.555-0.555v0c0-0.305,0.25-0.555,0.555-0.555h6.109
		c0.305,0,0.555,0.25,0.555,0.555v0C19.609,29.968,19.36,30.217,19.054,30.217z"/>
	<path fill="#968E89" d="M18.494,30.218h-4.989c-0.305,0-0.555,0.25-0.555,0.555c0,0.305,0.25,0.555,0.555,0.555h1.002l-0.024,0.118
		c0,0.305,0.25,0.555,0.555,0.555h1.923c0.305,0,0.555-0.25,0.555-0.555l-0.024-0.118h1.002c0.305,0,0.555-0.25,0.555-0.555
		C19.049,30.467,18.8,30.218,18.494,30.218z"/>
	<path fill="#E2B760" d="M18.633,12.495c0.036-0.097-0.013-0.206-0.109-0.242s-0.206,0.013-0.242,0.109l-1.825,4.824
		c-0.119-0.077-0.252-0.133-0.403-0.133c-0.168,0-0.315,0.066-0.441,0.159l-1.892-5c-0.037-0.097-0.146-0.146-0.242-0.109
		c-0.097,0.037-0.146,0.146-0.109,0.242l1.927,5.093l0.066,0.07c-0.041,0.093-0.066,0.195-0.066,0.303v6.479
		c0,0.417,0.341,0.758,0.758,0.758c0.417,0,0.758-0.341,0.758-0.758v-6.479c0-0.112-0.028-0.216-0.072-0.312L18.633,12.495z"/>
	<path fill="#4E5158" d="M19.247,25.783h-6.494c-0.305,0-0.555-0.25-0.555-0.555s0.25-0.555,0.555-0.555h6.494
		c0.305,0,0.555,0.25,0.555,0.555S19.552,25.783,19.247,25.783z"/>
</g>
</svg>
