<?xml version="1.0" encoding="utf-8"?>
<!-- Generator: Adobe Illustrator 19.0.1, SVG Export Plug-In . SVG Version: 6.00 Build 0)  -->
<svg version="1.1" id="Layer_1" xmlns="http://www.w3.org/2000/svg" xmlns:xlink="http://www.w3.org/1999/xlink" x="0px" y="0px"
	 viewBox="0 0 32 32" enable-background="new 0 0 32 32" xml:space="preserve">
<g>
	<g>
		<path fill="#2F5780" d="M16.741,0.365l-5.482,27.782c-0.055,0.279,0.159,0.54,0.444,0.54h11.09c0.286,0,0.5-0.262,0.443-0.542
			L17.628,0.363C17.53-0.122,16.837-0.12,16.741,0.365z"/>
	</g>
	<g>
		<path fill="#BCDB72" d="M7.213,9.226L3.447,28.315c-0.038,0.192,0.109,0.371,0.305,0.371h7.62c0.196,0,0.343-0.18,0.305-0.372
			L7.823,9.225C7.755,8.892,7.279,8.893,7.213,9.226z"/>
		<path fill="#5E4419" d="M7.66,32L7.66,32c-0.214,0-0.388-0.174-0.388-0.388V21.86c0-0.214,0.174-0.388,0.388-0.388h0
			c0.214,0,0.388,0.174,0.388,0.388v9.753C8.048,31.826,7.874,32,7.66,32z"/>
		<g>
			<path fill="#5E4419" d="M7.824,24.264c-0.063,0-0.126-0.025-0.173-0.075L6.31,22.765c-0.09-0.096-0.085-0.246,0.01-0.336
				c0.095-0.09,0.246-0.085,0.336,0.01l1.341,1.424c0.09,0.096,0.085,0.246-0.01,0.336C7.941,24.243,7.883,24.264,7.824,24.264z"/>
		</g>
	</g>
	<g>
		<path fill="#57AB7F" d="M24.09,6.062l-3.767,19.089c-0.038,0.192,0.109,0.371,0.305,0.371h7.62c0.196,0,0.343-0.18,0.305-0.372
			L24.7,6.061C24.632,5.728,24.156,5.729,24.09,6.062z"/>
		<path fill="#5D4319" d="M24.537,28.836L24.537,28.836c-0.214,0-0.388-0.174-0.388-0.388v-9.753c0-0.214,0.174-0.388,0.388-0.388h0
			c0.214,0,0.388,0.174,0.388,0.388v9.753C24.925,28.663,24.751,28.836,24.537,28.836z"/>
		<g>
			<path fill="#5D4319" d="M24.701,23.478c-0.055,0-0.111-0.019-0.156-0.058c-0.099-0.086-0.11-0.236-0.024-0.335l1.566-1.806
				c0.086-0.099,0.236-0.11,0.335-0.024c0.099,0.086,0.11,0.236,0.024,0.335l-1.566,1.806
				C24.834,23.451,24.768,23.478,24.701,23.478z"/>
		</g>
		<g>
			<path fill="#5D4319" d="M24.701,21.101c-0.063,0-0.126-0.025-0.173-0.075l-1.341-1.424c-0.09-0.096-0.085-0.246,0.01-0.336
				c0.095-0.09,0.246-0.085,0.336,0.01l1.341,1.424c0.09,0.096,0.085,0.246-0.01,0.336C24.818,21.079,24.76,21.101,24.701,21.101z"
				/>
		</g>
	</g>
</g>
</svg>
