<?xml version="1.0" encoding="utf-8"?>
<!-- Generator: Adobe Illustrator 15.0.0, SVG Export Plug-In . SVG Version: 6.00 Build 0)  -->
<!DOCTYPE svg PUBLIC "-//W3C//DTD SVG 1.1//EN" "http://www.w3.org/Graphics/SVG/1.1/DTD/svg11.dtd">
<svg version="1.1" id="Layer_1" xmlns="http://www.w3.org/2000/svg" xmlns:xlink="http://www.w3.org/1999/xlink" x="0px" y="0px"
	 width="32px" height="32px" viewBox="0 0 32 32" enable-background="new 0 0 32 32" xml:space="preserve">
<g>
	<g>
		<path fill="#18BDC2" d="M32,12.017c0,8.703-16,18.182-16,18.182V7.411C16,0.802,32-2.287,32,12.017z"/>
		<path fill="#38BFC3" d="M16,7.411v22.788c0,0-16-9.479-16-18.182C0-2.771,16,1.107,16,7.411z"/>
	</g>
	<g>
		<polygon fill="#FFCA66" points="11.042,7.198 7.193,15.261 0.563,15.261 1.563,17.136 9.182,17.136 11.034,12.94 16,22.678 
			16.011,17.261 		"/>
		<polygon fill="#D8B26F" points="23.682,15.261 20.5,9.177 16.011,17.261 16.011,22.649 20.482,14.542 21.776,17.136 
			30.479,17.136 31.479,15.261 		"/>
	</g>
</g>
</svg>
