<?xml version="1.0" encoding="utf-8"?>
<!-- Generator: Adobe Illustrator 19.0.1, SVG Export Plug-In . SVG Version: 6.00 Build 0)  -->
<svg version="1.1" id="Layer_1" xmlns="http://www.w3.org/2000/svg" xmlns:xlink="http://www.w3.org/1999/xlink" x="0px" y="0px"
	 viewBox="0 0 32 32" enable-background="new 0 0 32 32" xml:space="preserve">
<g>
	<path fill="#FFFFFF" d="M4.792,24.721c-1.564,0-3.024-0.839-3.809-2.19c-1.22-2.099-0.505-4.799,1.593-6.019
		c0.672-0.391,1.436-0.597,2.209-0.597c1.564,0,3.024,0.839,3.81,2.19c0.234,0.403,0.401,0.834,0.498,1.286
		c0.761,0.153,1.37,0.236,1.73,0.236c0.158,0,0.224-0.03,0.24-0.034c0.07-0.021,0.122-0.044,0.174-0.044h0.338l0.052,0.353
		c0.037,0.293-0.12,0.425-0.988,0.799c-0.305,0.131-0.885,0.369-1.552,0.557c-0.264,1.204-1.014,2.239-2.087,2.863
		C6.329,24.513,5.565,24.721,4.792,24.721z"/>
	<path fill="#39546D" d="M4.784,16.299c1.385,0,2.732,0.716,3.478,1.999c0.262,0.451,0.425,0.931,0.499,1.417
		c0.631,0.133,1.514,0.296,2.061,0.296c0.144,0,0.265-0.011,0.351-0.037c0.031-0.009,0.052-0.014,0.063-0.014
		c0.135,0-1.127,0.648-2.48,0.995c-0.185,1.148-0.864,2.207-1.948,2.837c-0.635,0.369-1.33,0.545-2.016,0.545
		c-1.385,0-2.732-0.716-3.478-1.999c-1.116-1.919-0.464-4.378,1.454-5.494C3.404,16.475,4.099,16.299,4.784,16.299 M4.785,15.52
		L4.785,15.52c-0.841,0-1.672,0.23-2.402,0.655c-1.105,0.643-1.894,1.68-2.221,2.916c-0.327,1.236-0.153,2.526,0.489,3.632
		c0.854,1.469,2.441,2.382,4.141,2.382c0.841,0,1.671-0.224,2.402-0.649c1.099-0.639,1.887-1.673,2.214-2.887
		c0.596-0.181,1.103-0.387,1.383-0.507c0.753-0.324,1.296-0.559,1.216-1.193c-0.049-0.385-0.38-0.676-0.771-0.676
		c-0.111,0-0.205,0.023-0.276,0.044c-0.011,0.002-0.052,0.007-0.139,0.007c-0.299,0-0.792-0.064-1.415-0.182
		c-0.109-0.402-0.27-0.792-0.481-1.155C8.072,16.438,6.485,15.52,4.785,15.52z"/>
	<circle fill="#39546D" cx="2.978" cy="20.601" r="0.635"/>
	<circle fill="#39546D" cx="4.882" cy="20.601" r="0.635"/>
	<circle fill="#39546D" cx="6.785" cy="20.601" r="0.635"/>
	<path fill="#FF4E49" d="M12.867,29.528v-4.562c0-0.865,0.629-1.77,1.903-1.77h8.566c1.027,0,1.812,0.711,1.812,1.77v4.562H12.867z"
		/>
	<path fill="#39546D" d="M23.342,23.542c0.872,0,1.421,0.552,1.421,1.424v4.37H13.058v-4.37c0-0.872,0.838-1.386,1.711-1.386h8.651
		 M23.335,22.812h-8.566c-0.575,0-1.11,0.22-1.549,0.571c-0.505,0.404-0.737,0.978-0.737,1.582v4.228v0.718h0.542h11.738h0.576
		v-0.718v-4.228C25.339,23.719,24.549,22.812,23.335,22.812z"/>
	<path fill="#FFE1A3" d="M20.542,23.387v-3.262H17.28v3.262h-1.823c0.511,1.919,1.927,3.382,3.596,3.382s3.085-1.463,3.596-3.382
		H20.542z"/>
	<path fill="#39546D" d="M19.052,27.077c-1.826,0-3.358-1.451-3.903-3.651l-0.097-0.422h2.037v-3.07h3.838v3.07h2.128l-0.097,0.422
		C22.411,25.626,20.878,27.077,19.052,27.077z M15.877,23.579c0.544,1.727,1.758,2.748,3.176,2.748s2.632-1.021,3.176-2.748h-2.07
		v-3.07h-2.494v3.07H15.877z"/>
	<path fill="#905C45" d="M25.36,23.366c-1.594,0-3.201-0.843-4.776-2.506c-1.662-1.755-2.34-3.524-2.014-5.259
		c0.259-1.38,1.181-2.74,2.664-3.936c1.105-0.89,2.123-1.375,2.166-1.395l0.027-0.013l0.029-0.007
		c0.027-0.007,0.671-0.17,1.502-0.17c1.284,0,2.303,0.391,2.947,1.13c0.722,0.83,0.974,2.079,0.747,3.713
		c-0.336,2.42,0.037,3.437,0.41,3.865c0.218,0.25,0.505,0.378,0.854,0.378c0.301,0,0.539-0.096,0.542-0.097l0.824-0.338
		l-0.424,0.782C30.771,19.67,28.723,23.366,25.36,23.366z"/>
	<path fill="#39546D" d="M24.958,10.397c1.601,0,3.913,0.64,3.379,4.482c-0.554,3.989,0.733,4.603,1.578,4.603
		c0.375,0,0.663-0.121,0.663-0.121s-2.005,3.688-5.218,3.688c-1.328,0-2.861-0.629-4.546-2.407
		c-5.763-6.083,2.721-10.085,2.721-10.085S24.157,10.397,24.958,10.397 M24.958,9.762L24.958,9.762c-0.871,0-1.552,0.173-1.581,0.18
		l-0.058,0.015l-0.054,0.026c-0.177,0.084-4.355,2.09-5.007,5.559c-0.346,1.841,0.359,3.703,2.095,5.536
		c1.638,1.729,3.322,2.605,5.007,2.605c1.489,0,2.964-0.703,4.268-2.034c0.954-0.974,1.486-1.944,1.508-1.985L32,18.073
		l-1.668,0.703l0,0c0,0-0.186,0.072-0.417,0.072c-0.26,0-0.455-0.085-0.614-0.268c-0.269-0.31-0.671-1.19-0.335-3.613
		c0.24-1.729-0.036-3.063-0.822-3.965C27.438,10.191,26.336,9.762,24.958,9.762z"/>
	<circle fill="#FFE1A3" cx="12.02" cy="14.442" r="1.586"/>
	<path fill="#39546D" d="M12.02,13.173c0.701,0,1.269,0.568,1.269,1.269c0,0.701-0.568,1.269-1.269,1.269
		c-0.701,0-1.269-0.568-1.269-1.269C10.751,13.741,11.319,13.173,12.02,13.173 M12.02,12.538c-1.05,0-1.904,0.854-1.904,1.904
		s0.854,1.904,1.904,1.904s1.904-0.854,1.904-1.904S13.069,12.538,12.02,12.538z"/>
	<circle fill="#FFE1A3" cx="25.979" cy="14.442" r="1.586"/>
	<path fill="#39546D" d="M25.979,13.173c0.701,0,1.269,0.568,1.269,1.269c0,0.701-0.568,1.269-1.269,1.269s-1.269-0.568-1.269-1.269
		C24.71,13.741,25.278,13.173,25.979,13.173 M25.979,12.538c-1.05,0-1.904,0.854-1.904,1.904s0.854,1.904,1.904,1.904
		c1.05,0,1.904-0.854,1.904-1.904S27.028,12.538,25.979,12.538z"/>
	<path fill="#FFE1A3" d="M19.052,21.6L19.052,21.6c-3.546,0-6.448-2.902-6.448-6.448v-3.641c0-3.546,2.902-6.448,6.448-6.448h0
		c3.546,0,6.448,2.902,6.448,6.448v3.641C25.5,18.698,22.599,21.6,19.052,21.6z"/>
	<path fill="#39546D" d="M19.795,21.917h-1.486c-3.321,0-6.022-2.702-6.022-6.022v-5.127c0-3.321,2.702-6.022,6.022-6.022h1.486
		c3.321,0,6.022,2.701,6.022,6.022v5.127C25.817,19.215,23.116,21.917,19.795,21.917z M18.309,5.38
		c-2.971,0-5.388,2.417-5.388,5.388v5.127c0,2.971,2.417,5.388,5.388,5.388h1.486c2.971,0,5.388-2.417,5.388-5.388v-5.127
		c0-2.971-2.417-5.388-5.388-5.388H18.309z"/>
	<path fill="#905C45" d="M12.002,13.227c-0.478,0-0.936-0.078-1.36-0.232c-0.242-0.088-0.326-0.24-0.355-0.352
		c-0.074-0.292,0.141-0.536,0.439-0.873c0.35-0.396,0.83-0.938,0.982-1.675c0.071-0.344,0.057-0.621,0.041-0.915
		c-0.027-0.513-0.057-1.094,0.346-2.076c0.761-1.852,3.271-4.608,7.068-4.608c0.431,0,0.872,0.036,1.313,0.106
		c2.163,0.345,3.96,1.471,5.06,3.172c1.219,1.884,1.478,4.307,0.748,7.006l-0.033,0.122l-0.108,0.066
		c-0.041,0.025-0.195,0.106-0.467,0.106c-0.766,0-2.459-0.671-5.291-5.082C19.316,9.193,15.463,13.227,12.002,13.227z"/>
	<path fill="#39546D" d="M19.164,2.813c0.406,0,0.827,0.032,1.263,0.102c3.977,0.634,7.072,4.161,5.552,9.782
		c0,0-0.097,0.06-0.301,0.06c-0.632,0-2.291-0.574-5.251-5.294c0,0-4.547,5.448-8.425,5.448c-0.428,0-0.847-0.066-1.251-0.213
		c-0.667-0.242,0.945-0.972,1.269-2.538c0.208-1.006-0.238-1.454,0.37-2.935C13.149,5.375,15.556,2.813,19.164,2.813 M19.164,2.089
		L19.164,2.089c-1.752,0-3.426,0.613-4.84,1.686c-1.129,0.858-2.049,2.033-2.522,3.186c-0.43,1.048-0.398,1.678-0.369,2.224
		c0.015,0.285,0.028,0.536-0.035,0.84c-0.135,0.654-0.583,1.163-0.909,1.532c-0.321,0.363-0.625,0.708-0.509,1.163
		c0.039,0.152,0.162,0.43,0.554,0.572c0.459,0.167,0.953,0.252,1.468,0.252c3.331,0,6.963-3.545,8.343-5.035
		c1.562,2.372,3.619,4.882,5.333,4.882c0.345,0,0.557-0.107,0.632-0.153l0.215-0.132l0.066-0.244
		c0.754-2.788,0.481-5.299-0.788-7.261c-1.15-1.777-3.024-2.999-5.276-3.358C20.07,2.17,19.611,2.089,19.164,2.089z"/>
	<path fill="#39546D" d="M11.253,11.428c-0.073,0-0.146-0.025-0.206-0.076c-0.133-0.114-0.149-0.314-0.036-0.447
		c0.207-0.242,0.421-0.446,0.628-0.643c0.259-0.246,0.504-0.479,0.659-0.727c0.547-0.877,0.674-1.713,0.676-1.722
		C13,7.64,13.161,7.52,13.334,7.545c0.173,0.025,0.293,0.185,0.269,0.359c-0.006,0.039-0.145,0.971-0.765,1.967
		c-0.198,0.318-0.471,0.577-0.761,0.852c-0.195,0.185-0.397,0.377-0.582,0.594C11.432,11.39,11.343,11.428,11.253,11.428z"/>
</g>
</svg>
