<?xml version="1.0" encoding="utf-8"?>
<!-- Generator: Adobe Illustrator 19.0.1, SVG Export Plug-In . SVG Version: 6.00 Build 0)  -->
<svg version="1.1" id="Layer_1" xmlns="http://www.w3.org/2000/svg" xmlns:xlink="http://www.w3.org/1999/xlink" x="0px" y="0px"
	 viewBox="0.5 0 32 32" enable-background="new 0.5 0 32 32" xml:space="preserve">
<g>
	<path fill="#EA7D5E" d="M16.699,32L16.699,32c-1.643,0-2.988-1.344-2.988-2.988v-3.705c0-1.643,1.344-2.988,2.988-2.988l0,0
		c1.643,0,2.988,1.344,2.988,2.988v3.705C19.687,30.656,18.342,32,16.699,32"/>
	<polyline fill="#7C96A5" points="13.712,27.263 13.701,27.263 13.701,28.069 13.712,28.069 13.712,27.263 	"/>
	<polyline fill="#735B5C" points="19.684,27.263 13.712,27.263 13.712,28.069 19.684,28.069 19.684,27.263 	"/>
	<polyline fill="#7C96A5" points="13.712,25.769 13.701,25.769 13.701,26.576 13.712,26.576 13.712,25.769 	"/>
	<polyline fill="#735B5C" points="19.684,25.769 13.712,25.769 13.712,26.576 19.684,26.576 19.684,25.769 	"/>
	<path fill="#7C96A5" d="M19.611,29.679c-0.006,0.026-0.012,0.052-0.019,0.078h0.004C19.601,29.731,19.606,29.705,19.611,29.679
		 M13.712,28.682H13.61l0.099,0.304c0,0.204,0,0.422,0.088,0.772h0.01c-0.062-0.238-0.095-0.488-0.095-0.745V28.682 M19.704,28.682
		h-0.018v0.113L19.704,28.682"/>
	<path fill="#735B5C" d="M19.687,28.682h-5.975v0.331c0,0.257,0.033,0.507,0.095,0.745h5.786c0.007-0.026,0.013-0.052,0.019-0.078
		c0.055-0.288,0.092-0.466,0.036-0.631l0.04-0.254L19.687,28.682"/>
	<path fill="#FCC24C" d="M26.02,14.493c0,5.148-4.173,9.321-9.321,9.321s-9.321-4.173-9.321-9.321s4.173-9.321,9.321-9.321
		S26.02,9.345,26.02,14.493"/>
	<path fill="#39546D" d="M15.061,0.443l0.051,2.053c0.006,0.239,0.204,0.428,0.442,0.421c0.233-0.013,0.428-0.204,0.421-0.442
		l-0.051-2.053C15.919,0.183,15.721-0.006,15.483,0l-0.029,0.003C15.23,0.022,15.057,0.215,15.061,0.443z"/>
	<path fill="#39546D" d="M21.717,1.191L20.964,3.1c-0.088,0.224,0.022,0.474,0.244,0.562c0.221,0.085,0.471-0.021,0.56-0.245
		l0.753-1.909c0.088-0.224-0.022-0.474-0.244-0.562c-0.178-0.07-0.375-0.013-0.491,0.128C21.759,1.11,21.735,1.147,21.717,1.191z"/>
	<path fill="#39546D" d="M26.928,4.669l-1.602,1.282c-0.188,0.15-0.216,0.423-0.068,0.609c0.149,0.184,0.42,0.216,0.607,0.066
		l1.602-1.282c0.188-0.15,0.216-0.423,0.068-0.609c-0.119-0.149-0.319-0.198-0.49-0.133C27.004,4.619,26.966,4.64,26.928,4.669z"/>
	<path fill="#39546D" d="M27.256,10.971c0.068,0.227,0.309,0.359,0.537,0.291l1.969-0.581c0.223-0.066,0.36-0.308,0.293-0.536
		c-0.068-0.227-0.309-0.359-0.537-0.291l-1.969,0.581l-0.023,0.008C27.313,10.518,27.193,10.749,27.256,10.971z"/>
	<path fill="#39546D" d="M9.815,1.68C9.698,1.54,9.501,1.484,9.323,1.554c-0.221,0.089-0.331,0.34-0.241,0.563l0.76,1.906
		c0.089,0.223,0.34,0.329,0.561,0.243c0.221-0.088,0.331-0.339,0.242-0.563l-0.76-1.906C9.866,1.753,9.842,1.716,9.815,1.68z"/>
	<path fill="#39546D" d="M5.05,5.771C4.872,5.729,4.681,5.805,4.582,5.968C4.459,6.172,4.524,6.438,4.73,6.562l1.758,1.059
		c0.206,0.124,0.47,0.056,0.593-0.146C7.204,7.271,7.14,7.004,6.933,6.881L5.175,5.822C5.134,5.798,5.093,5.783,5.05,5.771z"/>
	<path fill="#39546D" d="M5.473,12.099l-0.024-0.004L3.41,11.858c-0.237-0.027-0.451,0.143-0.48,0.378
		c-0.027,0.237,0.149,0.452,0.38,0.479l2.039,0.237c0.237,0.027,0.451-0.143,0.48-0.378C5.853,12.345,5.696,12.137,5.473,12.099z"/>
	<path fill="#62B2FC" d="M20.441,27.638h-7.484c-0.263,0-0.478-0.215-0.478-0.478s0.215-0.478,0.478-0.478h7.484
		c0.263,0,0.478,0.215,0.478,0.478S20.704,27.638,20.441,27.638z"/>
	<path fill="#62B2FC" d="M20.441,29.132h-7.484c-0.263,0-0.478-0.215-0.478-0.478s0.215-0.478,0.478-0.478h7.484
		c0.263,0,0.478,0.215,0.478,0.478S20.704,29.132,20.441,29.132z"/>
	<path fill="#317BA8" d="M15.119,23.591l-0.976-6.147l-0.001-0.012l0.017-0.038l0.041-0.018l0.027,0.008l0.001,0.001l2.257,1.347
		c0.095,0.057,0.202,0.085,0.308,0.084c0.112,0,0.223-0.032,0.32-0.092l0.001-0.001l2.056-1.305l0.03-0.01l0.041,0.018l0.016,0.037
		l-0.001,0.014v-0.002l-1.052,6.111l0.535,0.092l1.051-6.111v-0.002c0.006-0.034,0.009-0.069,0.009-0.103
		c0-0.171-0.074-0.325-0.184-0.429c-0.11-0.105-0.257-0.169-0.417-0.169c-0.109,0-0.222,0.031-0.321,0.095l-2.056,1.305l0.001-0.001
		l-0.032,0.01l-0.029-0.008l-2.257-1.347l0.001,0.001c-0.097-0.059-0.205-0.087-0.309-0.087c-0.161,0-0.308,0.064-0.418,0.17
		c-0.11,0.105-0.183,0.259-0.183,0.429l0.008,0.097l0.976,6.148L15.119,23.591L15.119,23.591z"/>
	<path fill="#4295D3" d="M20.971,26.144h-8.544c-0.55,0-1-0.45-1-1v-1.28c0-0.55,0.45-1,1-1h8.544c0.55,0,1,0.45,1,1v1.28
		C21.972,25.694,21.522,26.144,20.971,26.144z"/>
	<path fill="#FDD687" d="M19.073,8.323c-0.307,0-0.533,0.081-0.633,0.251c-0.289,0.488,0.557,1.523,1.889,2.312
		c0.868,0.514,1.728,0.797,2.302,0.797c0.307,0,0.533-0.081,0.633-0.251c0.289-0.488-0.557-1.523-1.889-2.312
		C20.507,8.606,19.647,8.323,19.073,8.323"/>
</g>
</svg>
