<?xml version="1.0" encoding="utf-8"?>
<!-- Generator: Adobe Illustrator 19.0.1, SVG Export Plug-In . SVG Version: 6.00 Build 0)  -->
<svg version="1.1" id="Layer_1" xmlns="http://www.w3.org/2000/svg" xmlns:xlink="http://www.w3.org/1999/xlink" x="0px" y="0px"
	 viewBox="0.5 0 32 32" enable-background="new 0.5 0 32 32" xml:space="preserve">
<g>
	<path fill="#9AA3DB" d="M16.701,32L16.701,32c-1.652,0-3.004-1.352-3.004-3.004V25.27c0-1.652,1.352-3.004,3.004-3.004l0,0
		c1.652,0,3.004,1.352,3.004,3.004v3.725C19.706,30.648,18.354,32,16.701,32"/>
	<path fill="#828793" d="M13.697,27.195h-0.003v0.811h0.003V27.195 M19.711,27.195h-0.005v0.811h0.005V27.195"/>
	<polyline fill="#545D83" points="19.706,27.195 13.697,27.195 13.697,28.006 19.706,28.006 19.706,27.195 	"/>
	<path fill="#828793" d="M13.697,25.693h-0.003v0.811h0.003V25.693 M19.711,25.693h-0.005v0.811h0.005V25.693"/>
	<polyline fill="#545D83" points="19.706,25.693 13.697,25.693 13.697,26.504 19.706,26.504 19.706,25.693 	"/>
	<path fill="#828793" d="M19.63,29.667c-0.003,0.012-0.006,0.025-0.009,0.037h0.002C19.625,29.691,19.627,29.679,19.63,29.667
		 M19.701,29.155c-0.005,0.092-0.014,0.183-0.027,0.272C19.692,29.323,19.703,29.235,19.701,29.155 M13.697,28.622h-0.094
		l0.094,0.291V28.622 M19.731,28.622h-0.026v0.164L19.731,28.622"/>
	<path fill="#545D83" d="M19.706,28.622h-6.009v0.291l0.005,0.015c0,0.206,0,0.424,0.088,0.776h5.831
		c0.003-0.012,0.006-0.024,0.009-0.037c0.017-0.089,0.033-0.168,0.045-0.239c0.013-0.09,0.022-0.18,0.027-0.272
		c-0.002-0.058-0.01-0.112-0.028-0.164l0.032-0.205L19.706,28.622"/>
	<path fill="#FCC24C" d="M26.075,14.575c0,5.177-4.197,9.374-9.374,9.374s-9.374-4.197-9.374-9.374s4.197-9.374,9.374-9.374
		S26.075,9.398,26.075,14.575"/>
	<path fill="#39546D" d="M15.054,0.445l0.051,2.064c0.006,0.24,0.205,0.43,0.445,0.424c0.235-0.013,0.43-0.205,0.424-0.445
		l-0.051-2.064c-0.006-0.24-0.205-0.43-0.445-0.424l-0.03,0.003C15.223,0.023,15.049,0.216,15.054,0.445z"/>
	<path fill="#39546D" d="M21.747,1.198l-0.757,1.92c-0.089,0.225,0.022,0.477,0.245,0.565c0.222,0.086,0.474-0.021,0.563-0.246
		l0.757-1.92c0.089-0.225-0.022-0.477-0.245-0.565c-0.179-0.07-0.377-0.014-0.494,0.129C21.789,1.116,21.766,1.153,21.747,1.198z"/>
	<path fill="#39546D" d="M26.988,4.696l-1.611,1.29c-0.189,0.151-0.218,0.425-0.068,0.612c0.15,0.185,0.422,0.217,0.611,0.066
		l1.611-1.29c0.189-0.151,0.218-0.425,0.068-0.612c-0.12-0.149-0.32-0.199-0.493-0.134C27.065,4.646,27.026,4.666,26.988,4.696z"/>
	<path fill="#39546D" d="M27.318,11.032c0.069,0.228,0.31,0.361,0.54,0.293l1.98-0.584c0.225-0.066,0.362-0.309,0.294-0.539
		c-0.069-0.228-0.31-0.361-0.54-0.293l-1.98,0.584l-0.023,0.008C27.375,10.577,27.255,10.81,27.318,11.032z"/>
	<path fill="#39546D" d="M9.779,1.69C9.661,1.548,9.462,1.493,9.284,1.563C9.061,1.652,8.951,1.904,9.041,2.129l0.764,1.917
		c0.09,0.225,0.342,0.331,0.564,0.244c0.223-0.089,0.333-0.341,0.243-0.566L9.848,1.807C9.83,1.763,9.806,1.726,9.779,1.69z"/>
	<path fill="#39546D" d="M4.986,5.803c-0.179-0.042-0.371,0.034-0.47,0.198C4.392,6.207,4.457,6.475,4.664,6.599l1.768,1.065
		C6.64,7.788,6.905,7.72,7.029,7.517c0.124-0.205,0.059-0.473-0.148-0.598L5.113,5.855C5.071,5.831,5.03,5.815,4.986,5.803z"/>
	<path fill="#39546D" d="M5.412,12.167l-0.024-0.004l-2.051-0.238c-0.238-0.028-0.454,0.144-0.483,0.381
		c-0.028,0.238,0.149,0.454,0.382,0.481l2.051,0.238c0.238,0.028,0.454-0.144,0.483-0.381C5.794,12.414,5.636,12.206,5.412,12.167z"
		/>
	<path fill="#7984B7" d="M15.112,23.145l-0.982-6.182l-0.001-0.012l0.017-0.038l0.041-0.018l0.028,0.009l0.001,0.001l2.269,1.355
		c0.096,0.057,0.203,0.085,0.309,0.085c0.113,0,0.225-0.032,0.322-0.093l0.001-0.001l2.068-1.313l0.03-0.01l0.041,0.018l0.017,0.037
		l-0.001,0.014v-0.002l-1.057,6.145l0.538,0.093l1.057-6.145v-0.002c0.006-0.035,0.009-0.069,0.009-0.104
		c0-0.172-0.074-0.327-0.185-0.432c-0.11-0.106-0.259-0.17-0.42-0.17c-0.11,0-0.223,0.032-0.323,0.095l-2.068,1.313l0.001-0.001
		l-0.032,0.01l-0.03-0.008l-2.269-1.355l0.001,0.001c-0.097-0.059-0.207-0.088-0.31-0.087c-0.162,0-0.31,0.065-0.42,0.17
		s-0.184,0.26-0.184,0.432l0.008,0.097l0.982,6.182L15.112,23.145L15.112,23.145z"/>
	<path fill="#7984B7" d="M20.464,27.614h-7.526c-0.264,0-0.481-0.216-0.481-0.481c0-0.264,0.216-0.481,0.481-0.481h7.526
		c0.264,0,0.481,0.216,0.481,0.481C20.945,27.397,20.729,27.614,20.464,27.614z"/>
	<path fill="#7984B7" d="M20.464,29.116h-7.526c-0.264,0-0.481-0.216-0.481-0.481c0-0.264,0.216-0.481,0.481-0.481h7.526
		c0.264,0,0.481,0.216,0.481,0.481C20.945,28.899,20.729,29.116,20.464,29.116z"/>
	<path fill="#59679B" d="M20.998,26.111h-8.592c-0.553,0-1.006-0.453-1.006-1.006v-1.287c0-0.553,0.453-1.006,1.006-1.006h8.592
		c0.553,0,1.006,0.453,1.006,1.006v1.287C22.004,25.659,21.551,26.111,20.998,26.111z"/>
	<path fill="#FDD687" d="M19.088,8.37c-0.309,0-0.536,0.082-0.637,0.252c-0.29,0.49,0.56,1.531,1.9,2.325
		c0.873,0.517,1.737,0.801,2.315,0.801c0.309,0,0.535-0.081,0.637-0.252c0.29-0.49-0.56-1.531-1.9-2.325
		C20.53,8.655,19.665,8.37,19.088,8.37"/>
</g>
</svg>
