<?xml version="1.0" encoding="utf-8"?>
<!-- Generator: Adobe Illustrator 19.0.0, SVG Export Plug-In . SVG Version: 6.00 Build 0)  -->
<svg version="1.1" id="Layer_1" xmlns="http://www.w3.org/2000/svg" xmlns:xlink="http://www.w3.org/1999/xlink" x="0px" y="0px"
	 viewBox="0 0 32 32" enable-background="new 0 0 32 32" xml:space="preserve">
<path id="XMLID_3_" fill="#518E4D" d="M15.8,24.8c0,0,0,0,0-0.1s0-0.1,0.1-0.3c0.1-0.2,0.1-0.6,0.2-1.1c0-0.5,0-1-0.2-1.6l0,0l0,0
	c0,0.1,0,0,0,0l0,0v-0.1v-0.1v-0.1c0,0,0,0,0-0.1l0,0c0-0.1-0.1-0.1-0.1-0.2s-0.1-0.1-0.1-0.2c-0.2-0.3-0.4-0.6-0.7-0.9
	s-0.6-0.6-1-1c-0.1-0.1-0.2-0.2-0.3-0.3c-0.1-0.1-0.2-0.2-0.2-0.3c-0.1-0.1-0.2-0.2-0.2-0.4c-0.1-0.1-0.1-0.3-0.2-0.4
	c0-0.1-0.1-0.1-0.1-0.2v-0.1l0,0l0,0l0,0l0,0c0-0.1,0-0.1-0.1-0.2V17l0,0v-0.1c0-0.2-0.1-0.3-0.1-0.5c0-0.1,0-0.3,0-0.5
	c0-0.6,0-1.2,0.1-1.8s0.3-1.2,0.6-1.7c0.1-0.1,0.1-0.3,0.2-0.4c0.1-0.1,0.1-0.3,0.2-0.4c0.1-0.1,0.2-0.3,0.3-0.4
	c0-0.1,0.1-0.1,0.1-0.2l0.1-0.1l0,0l0,0l0,0c0.2-0.2,0.4-0.5,0.6-0.7c0.2-0.2,0.5-0.4,0.7-0.6c0.5-0.4,1.1-0.7,1.7-0.9
	C18,8,18.5,7.9,19,7.6c0.5-0.2,1-0.5,1.3-0.8c0.2-0.2,0.3-0.4,0.4-0.6l0,0l0,0l0,0l0,0V6.1V6V5.9l0,0c0-0.1,0-0.1,0-0.2s0-0.1,0-0.2
	s0-0.2,0-0.4c0-0.1,0-0.2,0-0.4c0-0.2-0.1-0.5-0.2-0.7c-0.2-0.5-0.4-0.9-0.7-1.3c-0.1-0.1-0.1-0.2-0.2-0.3l-0.1-0.1l-0.1-0.1l0,0
	l0,0l0,0l0,0l-0.1-0.1L19.2,2l-0.1-0.1L19,1.8C18.2,1.3,17.4,1,16.5,1c-0.4,0-0.8,0-1.2,0.1c-0.2,0-0.4,0.1-0.5,0.1h-0.1l0,0l0,0
	l0,0l0,0h-0.1c-0.1,0-0.2,0.1-0.2,0.1c-0.1,0-0.1,0.1-0.2,0.1c-0.1,0-0.1,0.1-0.2,0.1c-0.1,0-0.1,0.1-0.2,0.1
	c-0.1,0-0.1,0.1-0.2,0.1C13.4,1.9,13.2,2,13,2.2c-0.4,0.3-0.6,0.6-0.7,0.9C12.1,3.2,12,3.3,12,3.4c0,0.1-0.1,0.1-0.1,0.1l0,0
	c-0.1,0.2-0.3,0.2-0.5,0.1c-0.2-0.1-0.2-0.3-0.1-0.4c0,0,0,0,0.1-0.1c0-0.1,0.1-0.2,0.2-0.3c0.2-0.2,0.4-0.6,0.8-1
	c0.2-0.2,0.4-0.4,0.7-0.6c0.1-0.1,0.1-0.1,0.2-0.1c0.1,0,0.1-0.1,0.2-0.1c0.1,0,0.2-0.1,0.2-0.1c0.1,0,0.2-0.1,0.3-0.1
	s0.2-0.1,0.3-0.1c0,0,0.1,0,0.1-0.1l0,0l0,0l0,0l0,0h0.1c0.2-0.1,0.4-0.1,0.6-0.2c0.4-0.1,0.9-0.1,1.4-0.1c1,0,2,0.3,2.9,0.9
	c0.1,0,0.1,0.1,0.2,0.1l0.2,0.1c0.1,0,0.1,0.1,0.2,0.1l0.1,0.1l0,0l0,0l0,0l0,0l0.1,0.1c0,0.1,0.1,0.1,0.1,0.2
	c0.1,0.1,0.2,0.2,0.3,0.3c0.4,0.5,0.6,1,0.9,1.6c0.1,0.3,0.2,0.6,0.2,0.9c0,0.2,0,0.3,0.1,0.5c0,0.2,0,0.3,0,0.5c0,0.1,0,0.2,0,0.3
	v0.3v0.1v0.1v0.1v0.1l0,0l0,0l0,0v0.1c-0.1,0.3-0.3,0.6-0.5,0.9c-0.2,0.3-0.5,0.5-0.8,0.7s-0.6,0.3-0.9,0.5C19,9.2,18.5,9.4,18,9.6
	s-1,0.5-1.4,0.8c-0.2,0.2-0.4,0.3-0.6,0.5L15.9,11l-0.1,0.1c-0.1,0.1-0.2,0.2-0.3,0.3l0,0l0,0l0,0l0,0l-0.1,0.1
	c0,0.1-0.1,0.1-0.1,0.2C15,11.8,15,11.9,14.9,12s-0.1,0.2-0.2,0.4c-0.1,0.1-0.1,0.2-0.2,0.4c-0.2,0.5-0.4,1-0.4,1.5
	c-0.1,0.5-0.1,1-0.1,1.5c0,0.1,0,0.2,0,0.3c0,0.1,0,0.2,0.1,0.3l0,0l0,0v0.1c0,0.1,0,0.1,0.1,0.2l0,0l0,0l0,0l0,0v0.1l0.1,0.1
	c0.2,0.4,0.4,0.7,0.7,1s0.6,0.6,1,1c0.3,0.3,0.6,0.7,0.9,1.1c0.1,0.1,0.1,0.2,0.2,0.3c0.1,0.1,0.1,0.2,0.2,0.3v0.1c0,0,0,0,0,0.1
	v0.1V21v0.1l0,0l0,0l0,0c0.2,0.8,0.3,1.5,0.3,2.1s-0.1,1-0.2,1.3c0,0.1-0.1,0.3-0.1,0.3c0,0.1,0,0.1,0,0.1c-0.1,0.4-0.6,0.7-1,0.6
	C16,25.7,15.7,25.2,15.8,24.8L15.8,24.8z"/>
<path id="XMLID_4_" fill="#8F613B" d="M24.7,30.6L24.7,30.6c0-0.8-0.7-1.5-1.5-1.5c-0.3,0-0.6,0.1-0.8,0.2c-0.1-0.1-0.2-0.1-0.3-0.1
	l0,0c0-0.7-0.5-1.2-1.1-1.3l0,0c0-1.3-1-2.3-2.3-2.3h-0.1c-0.1-0.3-0.2-0.5-0.4-0.8c-0.4-0.1-1-0.1-1.6,0.3c-0.2,0.1-0.9,0.6-1,1.4
	c0,0.6,0.3,1,0.4,1.2c-0.6-0.3-1.3-0.3-1.8,0.1c-0.3,0.3-0.4,0.7-0.5,0.8c-0.2-0.1-0.9-0.4-1.7-0.2c-0.9,0.3-1.4,1-1.5,1.1
	c-0.4-0.1-0.9,0.1-1.1,0.5c-0.2,0.3-0.1,0.7,0.1,1c-0.4-0.1-0.8,0.1-1.1,0.4c-0.1,0.2-0.1,0.3-0.2,0.5h0.4l0,0l0,0h0.9h0.3h2.1h1.2
	h0.7H15h1h1h1.1h0.7h0.4h0.2h2.1h0.8h0.2h0.1h0.9h0.2h0.1h1.8h0.8C26.2,31.2,25.5,30.7,24.7,30.6z"/>
<path id="XMLID_5_" fill="#518E4D" d="M12.4,3.4c-0.2-0.1-0.3-0.4-0.1-0.5c0.3-0.3,0.8-0.6,1.5-0.6s1.4,0.5,1.7,1
	c0.2,0.4,0.1,0.5,0.3,1C16,5,16.4,5.5,16.7,5.7c-1.3,0.3-2,0-2.3-0.3c-0.6-0.5-0.6-1.1-1.5-1.7C12.7,3.6,12.6,3.5,12.4,3.4z"/>
<path id="XMLID_6_" fill="#518E4D" d="M11.8,4.3c0.3-0.4,0-1-0.5-1.1c-0.9-0.1-2.3,0-3.5,0.9C6.6,5.1,6,6.7,6.1,8
	c0.1,0.9,0.4,1.1,0.8,2.2C7.2,11.7,7.1,13,7,13.9c2.6-1.2,3.5-2.5,3.8-3.5c0.4-1.5-0.3-2.8,0.4-4.9C11.3,5.1,11.6,4.6,11.8,4.3z"/>
<path id="XMLID_7_" fill="#518E4D" d="M16.4,19.2c-0.2,0-0.3-0.2-0.2-0.4c0.1-0.3,0.4-0.7,1-0.9c0.6-0.2,1.2-0.1,1.6,0.2
	c0.3,0.2,0.3,0.4,0.5,0.7c0.4,0.4,0.8,0.6,1.1,0.8c-0.9,0.6-1.5,0.6-1.8,0.5c-0.6-0.2-0.8-0.7-1.6-0.8
	C16.8,19.2,16.6,19.2,16.4,19.2z"/>
<path id="XMLID_8_" fill="#518E4D" d="M12.5,16.2c0.2,0,0.3-0.2,0.2-0.4c-0.1-0.3-0.4-0.7-1-0.9s-1.2-0.1-1.6,0.2
	c-0.3,0.2-0.3,0.4-0.5,0.7c-0.4,0.4-0.8,0.6-1.1,0.8c0.9,0.6,1.5,0.6,1.8,0.5c0.6-0.2,0.8-0.7,1.6-0.8
	C12.2,16.2,12.4,16.2,12.5,16.2z"/>
<path id="XMLID_9_" fill="#518E4D" d="M11.4,2.7c0.2,0.1,0.4-0.1,0.4-0.3c0-0.4-0.2-1-0.7-1.4c-0.5-0.5-1.3-0.6-1.8-0.4
	c-0.4,0.1-0.5,0.3-1,0.5C7.7,1.4,7.2,1.5,6.8,1.5c0.7,1,1.4,1.3,1.8,1.3c0.7,0.1,1.2-0.4,2.2-0.2C11,2.6,11.2,2.7,11.4,2.7z"/>
<path id="XMLID_10_" fill="#6C492E" d="M16.4,23.8c-1.1,0-2.1,0.8-2.3,1.9c-0.2-0.2-0.4-0.3-0.7-0.3c-0.6,0-1,0.4-1,1
	c0,0.1,0,0.2,0,0.3c-0.2-0.1-0.4-0.1-0.7-0.1c-1.2,0-2.3,1-2.3,2.3c0,0.1,0,0.1,0,0.2l0,0H9.3c-0.7,0-1.3,0.5-1.4,1.2
	c-0.1,0-0.3,0-0.4,0c-1,0-1.9,0.7-2.2,1.6h3c0-0.1,0.1-0.3,0.2-0.5c0.2-0.3,0.6-0.5,1.1-0.4c-0.2-0.3-0.3-0.7-0.1-1
	c0.2-0.4,0.6-0.6,1.1-0.5c0.1-0.1,0.5-0.9,1.5-1.1c0.9-0.2,1.6,0.1,1.7,0.2c0-0.2,0.1-0.6,0.5-0.8c0.5-0.4,1.2-0.4,1.8-0.1
	c-0.1-0.1-0.5-0.6-0.4-1.2c0-0.9,0.8-1.3,1-1.4c0.6-0.3,1.2-0.3,1.6-0.3C17.9,24.2,17.2,23.8,16.4,23.8z"/>
</svg>
