<?xml version="1.0" encoding="utf-8"?>
<!-- Generator: Adobe Illustrator 19.0.1, SVG Export Plug-In . SVG Version: 6.00 Build 0)  -->
<svg version="1.1" id="Layer_1" xmlns="http://www.w3.org/2000/svg" xmlns:xlink="http://www.w3.org/1999/xlink" x="0px" y="0px"
	 viewBox="0 0 32 32" enable-background="new 0 0 32 32" xml:space="preserve">
<g>
	<path fill="#CE9A3E" d="M13.652,5.534c-1.236,1.302-1.948,3.07-1.605,4.42c0.572,2.256,3.773,2.11,4.475,2.077
		c0.948-0.043,3.571-0.164,4.065-2.21c0.323-1.335-0.367-3.053-1.589-4.288"/>
	<path fill="#AFB6BA" d="M14.266,11.537c0.559,0.179,1.403,0.378,2.439,0.356c0.874-0.018,1.596-0.187,2.107-0.35
		c-0.761,1.045-1.522,2.09-2.283,3.134C15.775,13.631,15.02,12.584,14.266,11.537z"/>
	<g>
		<polygon fill="#F4DDB5" points="20.688,13.563 16.426,19.667 11.939,13.551 14.733,12.735 14.733,8.311 18.372,8.311 
			18.372,12.735 		"/>
		<path fill="#D8BA93" d="M18.372,8.785v3.872c-0.624,0.169-1.124,0.29-1.969,0.285c-0.717-0.005-1.114-0.101-1.67-0.24V8.785
			H18.372z"/>
	</g>
	<path fill="#417F50" d="M13.139,29.986v0.002c-0.007-0.003-0.015-0.007-0.022-0.01C13.123,29.981,13.13,29.984,13.139,29.986z"/>
	<path fill="#F4DDB5" d="M23.559,27.121c-0.253,0.241-0.506,0.483-0.759,0.724c0.305,0.188,0.357,0.385,0.37,0.452
		c0.093,0.501-0.555,1.151-1.225,1.194c-0.754,0.049-1.432-0.68-1.478-1.341c-0.046-0.659,0.54-1.175,1.076-1.646
		c0.26-0.229,0.504-0.388,0.685-0.494"/>
	<polygon fill="#D3D9DD" points="14.249,12.518 16.532,14.395 19.08,12.345 20.264,14.033 16.532,19.554 12.882,14.195 	"/>
	<path fill="#C5CDD3" d="M19.925,12.986l-0.816-1.415c-0.076-0.132-0.259-0.151-0.361-0.038l-2.217,2.466l-2.215-2.465
		c-0.102-0.114-0.286-0.094-0.361,0.039l-0.837,1.471l3.414,2.032L19.925,12.986z"/>
	<path fill="#172735" d="M16.83,15.857l0.444-0.439c0.184-0.182,0.184-0.48,0-0.662l-0.741-0.734l-0.007,0.007l-0.734,0.727
		c-0.184,0.182-0.184,0.48,0,0.662l0.444,0.439l-0.794,6.096l1.092,1.442l1.092-1.442L16.83,15.857z"/>
	<g>
		<g>
			<path fill="#E8CDA6" d="M11.534,6.986c0.103-0.141,0.364-0.168,0.683-0.084l-0.349-1.052c-0.033-0.239-0.253-2.078,1.088-3.442
				c0.727-0.74,1.811-1.03,2.338-1.134l0-0.001c0.535-0.043,1.658-0.06,2.56,0.454c1.662,0.947,1.953,2.775,1.986,3.016l-0.05,1.105
				c0.128-0.074,0.248-0.124,0.356-0.146c0.135-0.031,0.248-0.018,0.325,0.042c0.039,0.029,0.121,0.116,0.089,0.638
				c-0.044,0.665-0.076,1.165-0.432,1.36c-0.067,0.038-0.205,0.094-0.424,0.073l-0.028,0.632c-0.035,0.796-0.405,1.54-1.018,2.048
				l-1.312,1.089c-0.339,0.282-0.809,0.347-1.213,0.169l-1.559-0.69c-0.728-0.322-1.287-0.937-1.538-1.693l-0.2-0.602
				c-0.205,0.081-0.352,0.064-0.428,0.047c-0.396-0.092-0.563-0.563-0.786-1.192C11.448,7.131,11.505,7.026,11.534,6.986"/>
			<path fill="#F4DDB5" d="M17.853,1.728c1.662,0.947,1.953,2.775,1.986,3.016l-0.05,1.105c0.128-0.074,0.248-0.123,0.356-0.146
				c0.135-0.032,0.248-0.018,0.325,0.042c0.039,0.029,0.121,0.116,0.089,0.638c-0.044,0.665-0.076,1.165-0.432,1.36
				c-0.067,0.038-0.205,0.094-0.424,0.073l-0.028,0.632c-0.035,0.796-0.405,1.54-1.018,2.048l-1.312,1.089
				c-0.162,0.135-0.355,0.219-0.555,0.251L15.322,1.272C15.867,1.23,16.967,1.222,17.853,1.728"/>
			<g>
				<path fill="#CE8C78" d="M15.878,10.438c-0.051,0.007-0.104-0.011-0.139-0.053c-0.056-0.065-0.048-0.163,0.017-0.218
					c0.197-0.168,0.525-0.38,0.973-0.421c0.201-0.019,0.403-0.003,0.601,0.05c0.083,0.022,0.132,0.107,0.11,0.189
					c-0.022,0.083-0.107,0.132-0.189,0.11c-0.163-0.043-0.328-0.057-0.492-0.041c-0.368,0.036-0.639,0.209-0.802,0.348
					C15.934,10.423,15.906,10.434,15.878,10.438z"/>
			</g>
			<g>
				<path fill="#D8BA93" d="M16.374,8.974c-0.24,0.033-0.445-0.075-0.491-0.102c-0.037-0.021-0.05-0.069-0.028-0.106
					c0.021-0.037,0.069-0.05,0.106-0.028c0.045,0.026,0.284,0.151,0.521,0.046c0.075-0.033,0.14-0.085,0.194-0.154
					c0.026-0.034,0.075-0.04,0.109-0.013c0.034,0.026,0.04,0.075,0.013,0.109c-0.07,0.089-0.155,0.156-0.253,0.2
					C16.486,8.951,16.429,8.966,16.374,8.974z"/>
			</g>
		</g>
		<g>
			<path fill="#CE9A3E" d="M14.849,7.413c-0.068-0.046-0.229-0.153-0.445-0.168c-0.018-0.001-0.036-0.002-0.054-0.002
				c-0.279,0-0.488,0.157-0.565,0.225c-0.045,0.039-0.049,0.107-0.01,0.152c0.02,0.023,0.05,0.037,0.081,0.037
				c0.026,0,0.051-0.009,0.071-0.027c0.059-0.052,0.217-0.171,0.422-0.171c0.013,0,0.026,0,0.039,0.001
				c0.159,0.012,0.277,0.09,0.341,0.133c0.006,0.004,0.012,0.01,0.018,0.014c-0.06,0.002-0.121,0.008-0.18,0.021
				c-0.133,0.029-0.261,0.089-0.37,0.171c-0.054,0.041-0.064,0.118-0.023,0.171c0.024,0.032,0.061,0.048,0.098,0.048
				c0.026,0,0.052-0.008,0.074-0.025c0.081-0.061,0.176-0.105,0.275-0.127c0.097-0.021,0.199-0.022,0.296-0.002
				c0.041,0.009,0.081-0.007,0.109-0.034l0.009-0.001c0.019-0.002,0.038-0.01,0.053-0.021c0.047-0.036,0.056-0.104,0.021-0.151
				C15.035,7.562,14.948,7.48,14.849,7.413z"/>
			<path fill="#CE9A3E" d="M18.47,6.936c-0.008-0.028-0.027-0.05-0.052-0.064C18.34,6.83,18.181,6.76,17.987,6.76
				c-0.076,0-0.15,0.011-0.221,0.032c-0.208,0.063-0.34,0.203-0.397,0.263C17.287,7.141,17.22,7.241,17.17,7.35
				c-0.025,0.054-0.001,0.118,0.053,0.142c0.013,0.006,0.027,0.008,0.041,0.009c0.021,0.017,0.047,0.027,0.074,0.027
				c0.018,0,0.036-0.004,0.054-0.012c0.065-0.032,0.17-0.07,0.3-0.071c0.104,0,0.204,0.021,0.296,0.063
				c0.061,0.028,0.134,0.001,0.162-0.06c0.028-0.062,0.001-0.134-0.06-0.162C17.965,7.229,17.828,7.2,17.69,7.201
				c-0.06,0-0.121,0.008-0.18,0.02c0.005-0.006,0.009-0.013,0.015-0.019c0.052-0.055,0.15-0.158,0.303-0.204
				c0.051-0.016,0.105-0.023,0.16-0.023c0.146,0,0.268,0.055,0.328,0.087c0.016,0.009,0.033,0.013,0.051,0.013
				c0.04,0,0.076-0.022,0.095-0.056C18.475,6.993,18.478,6.964,18.47,6.936z"/>
		</g>
		<path fill="#CE9A3E" d="M21.62,5.77c-0.076-0.181-0.162-0.346-0.253-0.498c0.004-0.816-0.158-1.779-0.725-2.697
			c-0.248-0.402-0.916-1.485-2.25-1.887c-1.064-0.321-2.057-0.058-2.801,0.302c0.062-0.437,0.242-0.755,0.328-0.89
			c-0.116,0.005-1.037,0.062-1.589,0.849c-0.095,0.135-0.165,0.273-0.216,0.405c-0.056-0.049-0.116-0.096-0.181-0.141
			c-0.903-0.625-1.912-0.321-2.038-0.28c0.172,0.131,0.586,0.485,0.826,1.089c-1.139,0.461-1.651,1.581-1.73,1.764
			c-0.38,0.872-0.294,1.722-0.114,2.352c-0.026,0.1-0.049,0.203-0.065,0.312c-0.217,1.441,0.661,2.526,0.826,2.722
			c0.088-0.386,0.266-0.965,0.664-1.562c0.319-0.48,0.572-0.66,0.935-1.12c0.281-0.191,0.555-0.436,0.795-0.752
			c0.374-0.492,0.541-0.994,0.621-1.346c0.794,0.58,1.85,1.243,3.168,1.817c0.207,0.09,0.409,0.172,0.61,0.25
			c0.017,0.014,0.036,0.03,0.053,0.043c0.672,0.536,1.057,0.665,1.644,1.196c0.688,0.621,1.095,1.288,1.329,1.744
			C21.598,9.142,22.351,7.505,21.62,5.77z"/>
	</g>
	<g>
		<path fill="#191F2B" d="M24.41,26.741l-0.904,0.888c-0.103,0.101-0.268,0.101-0.371,0l-1.377-1.356
			c-0.105-0.103-0.105-0.273-0.001-0.377l0.812-0.806L24.41,26.741z"/>
		<path fill="#2F384C" d="M23.161,14.264c1.492,2.412,2.984,4.824,4.475,7.236c0.281,0.455,0.259,1.034-0.056,1.466
			c-1.121,1.535-2.241,3.071-3.362,4.606c-0.764-0.744-1.529-1.488-2.293-2.232c0.724-0.989,1.447-1.977,2.171-2.966
			c-1.101-1.294-2.201-2.589-3.302-3.883c-0.207-1.013-0.415-2.027-0.622-3.04C21.868,14.777,21.466,14.937,23.161,14.264z"/>
		<path fill="#262E3D" d="M20.476,16.937c0.106,0.518,0.212,1.035,0.318,1.553c1.101,1.294,2.201,2.589,3.302,3.883
			c-0.724,0.989-1.447,1.977-2.171,2.966c0.285,0.278,0.571,0.555,0.856,0.833c0.827-1.33,1.654-2.659,2.481-3.989
			C23.555,20.585,22.101,18.646,20.476,16.937z"/>
		<path fill="#F4DDB5" d="M16.019,3.29c0.151-0.248,0.228-0.371,0.293-0.379c0.169-0.02,0.436,0.448,0.491,0.928
			c0.064,0.56-0.175,1.011-0.289,1.22c-0.73,1.337-2.649,2.122-3.016,2.268L8.607,9.9L7.404,8.003l4.965-2.183l-0.001-0.006
			c0.186-0.926,0.558-1.353,0.876-1.572c0.167-0.115,0.191-0.084,0.517-0.272c0.836-0.483,1.112-0.938,1.273-0.849
			c0.127,0.07,0.117,0.444-0.027,0.719c-0.246,0.466-0.836,0.562-0.802,0.765c0.013,0.079,0.112,0.122,0.142,0.135
			c0.372,0.164,1.13-0.333,1.405-0.928C15.789,3.73,15.867,3.54,16.019,3.29z"/>
		<path fill="#E8CDA6" d="M14.862,5.74c0.55-0.418,1.257-1.115,1.844-2.309c-0.108-0.305-0.276-0.534-0.395-0.52
			c-0.065,0.008-0.142,0.131-0.293,0.379c-0.152,0.25-0.23,0.44-0.267,0.521c-0.275,0.595-1.033,1.092-1.405,0.928
			c-0.03-0.013-0.128-0.057-0.142-0.135c-0.034-0.203,0.556-0.299,0.802-0.765c0.145-0.274,0.155-0.648,0.027-0.719
			c-0.161-0.089-0.437,0.366-1.273,0.849c-0.326,0.189-0.35,0.157-0.517,0.272c-0.318,0.219-0.69,0.646-0.876,1.572l0.001,0.006
			L7.404,8.003l0.453,0.714C9.249,8.056,10.418,7.6,11.254,7.3C12.997,6.673,13.859,6.503,14.862,5.74z"/>
		<path fill="#191F2B" d="M9.45,6.995l1.049-0.712c0.174-0.118,0.411-0.064,0.517,0.117c0.204,0.205,0.459,0.506,0.679,0.913
			c0.165,0.305,0.268,0.59,0.333,0.823c0.01,0.017,0.086,0.154,0.025,0.313c-0.038,0.098-0.118,0.18-0.229,0.215
			c-0.34,0.108-0.68,0.215-1.02,0.323"/>
		<path fill="#2F384C" d="M20.672,21.864c0.221-3.466,1.875-6.525,2.487-7.583c-1.142-0.528-2.284-1.056-3.426-1.584
			c-0.33,0.975-0.78,2.089-1.399,3.276c-0.56,1.074-1.15,1.996-1.705,2.771c-0.583-0.637-1.289-1.53-1.918-2.7
			c-0.675-1.255-1.041-2.413-1.247-3.29l-4.014,0.361c-0.275-0.035-0.629-0.141-0.946-0.425c-0.535-0.479-0.575-1.115-0.58-1.232
			c0.898-0.73,2.244-1.65,3.243-2.234c0.32-0.187,0.166-0.625,0.166-0.625c0-0.154-0.029-0.339-0.486-1.119
			c-0.393-0.67-0.518-0.784-0.657-0.866C9.939,6.468,9.684,6.381,9.575,6.439c-1.442,0.766-3.573,2.276-4.88,3.254
			c-0.372,0.278-0.573,0.733-0.519,1.194c0.104,0.899,0.384,2.129,1.127,3.394c1.633,2.782,4.322,3.724,5.055,3.954
			c0.508,0.599,1.345,1.752,1.753,3.424c0.266,1.089,0.643,2.632-0.041,4.077c-0.197,0.416-0.546,0.96-0.892,1.956
			c-0.188,0.541-0.322,1.065-0.145,1.632c0.087,0.28,0.226,0.488,0.326,0.616c0.439,0.397,2.23,1.921,4.968,1.958
			c2.972,0.041,4.903-1.698,5.295-2.067c0.082-0.136,0.19-0.346,0.254-0.617c0.132-0.561-0.002-1.032-0.073-1.269
			c-0.284-0.951-0.426-1.426-0.846-2.332C20.496,24.62,20.554,23.701,20.672,21.864z"/>
		<path fill="#262E3D" d="M13.181,27.632c0.008-1.036,0.65-1.633,0.887-3.363c0.206-1.508-0.044-2.787-0.275-3.608
			c-0.293-0.111-1.01-0.431-1.468-1.192c-0.574-0.956-0.507-2.222,0.153-3.272c-2.66,0.36-5.102-0.669-6.146-2.568
			c-0.609-1.108-0.594-2.242-0.52-2.905c1.605-1.201,3.209-2.402,4.814-3.603c-0.228-0.356-0.328-0.441-0.438-0.506
			C9.939,6.468,9.684,6.381,9.575,6.439c-1.442,0.766-3.573,2.276-4.88,3.254c-0.372,0.278-0.573,0.733-0.519,1.194
			c0.104,0.899,0.384,2.129,1.127,3.394c1.633,2.782,4.322,3.724,5.055,3.954c0.508,0.599,1.345,1.752,1.753,3.424
			c0.266,1.089,0.643,2.632-0.041,4.077c-0.197,0.416-0.546,0.96-0.892,1.956c-0.188,0.541-0.322,1.065-0.145,1.632
			c0.087,0.28,0.226,0.488,0.326,0.616c0.439,0.397,2.23,1.921,4.968,1.958c0.105,0.001,0.208,0,0.31-0.003
			C13.786,30.104,13.173,28.656,13.181,27.632z"/>
		<path fill="#191F2B" d="M16.666,20.05c0.816-0.931,1.773-2.198,2.629-3.822c0.595-1.128,1.016-2.19,1.319-3.123
			c-0.294-0.136-0.588-0.272-0.883-0.408c-0.33,0.975-0.78,2.089-1.399,3.276c-0.56,1.074-1.15,1.996-1.705,2.771
			c-0.583-0.637-1.289-1.53-1.918-2.7c-0.675-1.255-1.041-2.413-1.247-3.29l-1.04,0.094c0.349,1.393,1.027,3.274,2.409,5.153
			C15.441,18.829,16.076,19.505,16.666,20.05z"/>
	</g>
</g>
</svg>
